Coordinates
version=1
nRows=43
nColumns=12
inDegrees=yes

Units are S.I. units (second, meters, Newtons, ...)
Angles are in degrees

endheader
time	SC_y	SC_z	SC_x	AC_y	AC_z	AC_x	GH_y	GH_z	GH_yy	EL_x	PS_y
       0.0              -54.67          1.645          83.74          36.33         -17.37          12.39          135.2          37.15         -174.7          21.15          110.7
   0.04388              -54.67           1.65          83.73          36.33         -17.37          12.38          135.2          37.15         -174.6          21.16          110.7
   0.08775              -54.67          1.654          83.71          36.33         -17.37          12.38          135.2          37.15         -174.6          21.17          110.7
    0.1316              -54.67          1.659           83.7          36.33         -17.37          12.38          135.2          37.15         -174.5          21.18          110.7
    0.1755              -54.66          1.664          83.69          36.33         -17.36          12.37          135.1          37.15         -174.5          21.19          110.7
    0.2194              -54.66           1.67          83.67          36.33         -17.36          12.37          135.1          37.15         -174.4           21.2          110.7
    0.2633              -54.66          1.676          83.65          36.34         -17.36          12.37          135.1          37.15         -174.3          21.21          110.7
    0.3071              -54.66          1.682          83.64          36.34         -17.36          12.36          135.0          37.15         -174.3          21.22          110.7
     0.351              -54.65          1.689          83.62          36.34         -17.36          12.36          135.0          37.15         -174.2          21.23          110.6
    0.3949              -54.65          1.696           83.6          36.34         -17.35          12.35          135.0          37.15         -174.1          21.25          110.6
    0.4388              -54.64          1.704          83.58          36.34         -17.35          12.35          134.9          37.15         -174.0          21.26          110.6
    0.4826              -54.64          1.712          83.55          36.34         -17.35          12.34          134.9          37.14         -174.0          21.28          110.6
    0.5265              -54.64          1.721          83.53          36.34         -17.35          12.33          134.9          37.14         -173.9          21.29          110.6
    0.5704              -54.63          1.731           83.5          36.35         -17.34          12.33          134.8          37.14         -173.8          21.31          110.6
    0.6143              -54.63          1.741          83.47          36.35         -17.34          12.32          134.8          37.14         -173.7          21.33          110.5
    0.6581              -54.62          1.753          83.44          36.35         -17.34          12.31          134.7          37.14         -173.5          21.35          110.5
     0.702              -54.61          1.765           83.4          36.35         -17.33           12.3          134.6          37.14         -173.4          21.37          110.5
    0.7459              -54.61          1.778          83.37          36.35         -17.33          12.29          134.6          37.14         -173.3           21.4          110.5
    0.7898               -54.6          1.793          83.32          36.36         -17.32          12.28          134.5          37.14         -173.1          21.43          110.4
    0.8337              -54.59          1.809          83.28          36.36         -17.32          12.27          134.4          37.14         -173.0          21.46          110.4
    0.8775              -54.58          1.827          83.23          36.36         -17.31          12.26          134.3          37.14         -172.8          21.49          110.4
    0.9214              -54.57          1.847          83.18          36.37         -17.31          12.24          134.3          37.14         -172.6          21.53          110.3
    0.9653              -54.56          1.868          83.12          36.37          -17.3          12.23          134.1          37.13         -172.3          21.57          110.3
     1.009              -54.55          1.892          83.05          36.37         -17.29          12.21          134.0          37.13         -172.1          21.61          110.3
     1.053              -54.54          1.919          82.97          36.38         -17.28          12.19          133.9          37.13         -171.8          21.66          110.2
     1.097              -54.52          1.948          82.89          36.38         -17.27          12.17          133.8          37.13         -171.5          21.72          110.1
     1.141              -54.51          1.981           82.8          36.39         -17.26          12.15          133.6          37.13         -171.2          21.78          110.1
     1.185              -54.49          2.019          82.69           36.4         -17.25          12.12          133.4          37.12         -170.8          21.85          110.0
     1.229              -54.47          2.061          82.58           36.4         -17.24          12.09          133.2          37.12         -170.3          21.93          109.9
     1.272              -54.44          2.109          82.44          36.41         -17.22          12.05          133.0          37.12         -169.8          22.02          109.8
     1.316              -54.41          2.163          82.29          36.42         -17.21          12.02          132.7          37.11         -169.3          22.12          109.7
      1.36              -54.38          2.226          82.11          36.43         -17.19          11.97          132.4          37.11         -168.6          22.24          109.6
     1.404              -54.35          2.299          81.91          36.45         -17.16          11.92          132.1          37.11         -167.9          22.37          109.5
     1.448               -54.3          2.383          81.68          36.46         -17.14          11.86          131.7           37.1         -167.0          22.53          109.3
     1.492              -54.25          2.481           81.4          36.48         -17.11          11.79          131.2          37.09         -166.0          22.71          109.1
     1.536               -54.2          2.597          81.08           36.5         -17.07           11.7          130.6          37.09         -164.8          22.93          108.9
      1.58              -54.13          2.735          80.69          36.52         -17.03           11.6          130.0          37.08         -163.3          23.19          108.6
     1.623              -54.04          2.901          80.23          36.55         -16.97          11.49          129.2          37.07         -161.6           23.5          108.3
     1.667              -53.94          3.101          79.67          36.59         -16.91          11.34          128.2          37.05         -159.6          23.87          107.9
     1.711              -53.82          3.345          78.99          36.63         -16.83          11.17          127.0          37.04         -157.0          24.33          107.4
     1.755              -53.67          3.647          78.14          36.69         -16.74          10.95          125.6          37.02         -153.9          24.89          106.9
     1.799              -53.48          4.023          77.09          36.75         -16.62          10.68          123.8          36.99         -150.0          25.59          106.1
     1.843              -53.24          4.497          75.77          36.84         -16.47          10.34          121.5          36.96         -145.1          26.48          105.2
